<?xml version="1.0" encoding="UTF-8" standalone="no"?>
<svg
   xmlns:dc="http://purl.org/dc/elements/1.1/"
   xmlns:cc="http://creativecommons.org/ns#"
   xmlns:rdf="http://www.w3.org/1999/02/22-rdf-syntax-ns#"
   xmlns:svg="http://www.w3.org/2000/svg"
   xmlns="http://www.w3.org/2000/svg"
   xmlns:sodipodi="http://sodipodi.sourceforge.net/DTD/sodipodi-0.dtd"
   xmlns:inkscape="http://www.inkscape.org/namespaces/inkscape"
   inkscape:version="1.0 (4035a4fb49, 2020-05-01)"
   inkscape:export-ydpi="13.5"
   inkscape:export-xdpi="13.5"
   inkscape:export-filename="C:\Users\samho\AppData\Roaming\Elgato\StreamDeck\Plugins\com.samhorne.mediamonkey5.sdPlugin\images\shuffleon\keys\shuffleon.png"
   sodipodi:docname="shuffleon.svg"
   id="svg3"
   xml:space="preserve"
   enable-background="new 0 0 512 512"
   viewBox="0 0 512 512"
   height="100%"
   width="100%"
   y="0px"
   x="0px"
   version="1.1"><metadata
   id="metadata9"><rdf:RDF><cc:Work
       rdf:about=""><dc:format>image/svg+xml</dc:format><dc:type
         rdf:resource="http://purl.org/dc/dcmitype/StillImage" /><dc:title></dc:title></cc:Work></rdf:RDF></metadata><defs
   id="defs7" /><sodipodi:namedview
   inkscape:current-layer="svg3"
   inkscape:window-maximized="0"
   inkscape:window-y="37"
   inkscape:window-x="120"
   inkscape:cy="357.85618"
   inkscape:cx="206.07945"
   inkscape:zoom="0.70848783"
   showgrid="false"
   id="namedview5"
   inkscape:window-height="1349"
   inkscape:window-width="1278"
   inkscape:pageshadow="2"
   inkscape:pageopacity="0"
   guidetolerance="10"
   gridtolerance="10"
   objecttolerance="10"
   borderopacity="1"
   bordercolor="#666666"
   pagecolor="#ffffff"
   inkscape:document-rotation="0"
   inkscape:snap-bbox="true"
   inkscape:snap-bbox-midpoints="true"
   inkscape:snap-nodes="false" />
<path
   style="fill:#efefef;fill-opacity:1"
   d="m 256,92.481 c 44.433,0 86.18,17.068 117.553,48.064 31.241,30.866 48.447,71.868 48.447,115.454 0,43.586 -17.206,84.588 -48.448,115.455 -31.372,30.994 -73.12,48.064 -117.552,48.064 -44.432,0 -86.179,-17.07 -117.552,-48.064 C 107.206,340.587 90,299.585 90,255.999 90,212.413 107.206,171.411 138.448,140.546 169.821,109.55 211.568,92.481 256,92.481 m 0,-40 c -113.771,0 -206,91.117 -206,203.518 0,112.398 92.229,203.52 206,203.52 113.772,0 206,-91.121 206,-203.52 0,-112.4 -92.228,-203.518 -206,-203.518 z"
   id="stop-icon"
   sodipodi:nodetypes="ccscscsccsssss" />
<g
   style="fill:#efefef;fill-opacity:1"
   transform="matrix(2.8615372,0,0,2.8615372,134.38323,134.38324)"
   id="g4"><path
     style="fill:#efefef;fill-opacity:1"
     d="m 27.852001,46.004002 c 2.037998,2.841999 4.233002,5.896 6.956001,8.797001 C 28.599998,61.945 19.552999,68.445 1.798,68.445 v -13 c 14.077,0 19.778999,-4.667999 24.822002,-11.150002 C 27.026,44.854 27.435001,45.422001 27.852,46.004001 Z m 13.896,-9.967003 C 43.02,37.809998 44.215,39.473 45.452,41 c 4.289001,-4.732002 9.675003,-8.109001 19.975002,-8.766003 l -3.164001,8.012001 c -0.131996,0.332001 -0.025,0.709 0.260002,0.924 0.140999,0.105 0.308998,0.16 0.476997,0.16 0.169998,0 0.340004,-0.055 0.482002,-0.163998 L 82.892997,26.240001 c 0.195,-0.147999 0.308998,-0.381001 0.308998,-0.626999 0,-0.245998 -0.112999,-0.479 -0.308998,-0.626999 L 63.481002,10.061 c -0.282997,-0.216999 -0.676003,-0.219 -0.959,-0.004 -0.285004,0.215 -0.391998,0.591999 -0.260002,0.924 l 3.251999,8.233999 C 51.576003,19.945 43.357001,24.754 37.564002,30.463 c 1.550999,1.907997 2.914997,3.805 4.183998,5.573997 z M 63.481003,43.834 c -0.142998,-0.109001 -0.313004,-0.164001 -0.482002,-0.164001 -0.167999,0 -0.335999,0.055 -0.476997,0.160004 -0.285004,0.214996 -0.391998,0.591999 -0.260002,0.924 L 65.426003,52.766 C 50.685002,51.827001 46.005005,45.317003 40.208001,37.233003 33.601003,28.020002 25.379002,16.555002 1.798004,16.555002 v 13 c 16.905999,0 21.733998,6.73 27.846002,15.253998 6.378998,8.895 14.245998,19.844002 35.870995,20.976997 l -3.251999,8.234001 c -0.131996,0.332001 -0.025,0.709 0.260002,0.924004 0.282997,0.214996 0.676003,0.212997 0.959,-0.004 L 82.894007,60.014001 c 0.195,-0.148003 0.308998,-0.380997 0.308998,-0.626999 0,-0.246002 -0.112999,-0.479004 -0.308998,-0.626999 L 63.481005,43.834 Z"
     id="path2" /></g></svg>
