<?xml version="1.0" encoding="UTF-8" standalone="no"?>
<svg
   xmlns:dc="http://purl.org/dc/elements/1.1/"
   xmlns:cc="http://creativecommons.org/ns#"
   xmlns:rdf="http://www.w3.org/1999/02/22-rdf-syntax-ns#"
   xmlns:svg="http://www.w3.org/2000/svg"
   xmlns="http://www.w3.org/2000/svg"
   xmlns:sodipodi="http://sodipodi.sourceforge.net/DTD/sodipodi-0.dtd"
   xmlns:inkscape="http://www.inkscape.org/namespaces/inkscape"
   version="1.1"
   x="0px"
   y="0px"
   width="100%"
   height="100%"
   viewBox="0 0 512 512"
   enable-background="new 0 0 512 512"
   xml:space="preserve"
   id="svg3"
   sodipodi:docname="shuffleoff.svg"
   inkscape:export-filename="C:\Users\samho\AppData\Roaming\Elgato\StreamDeck\Plugins\com.samhorne.mediamonkey5.sdPlugin\images\shuffleoff\actions\shuffleoff.png"
   inkscape:export-xdpi="3.75"
   inkscape:export-ydpi="3.75"
   inkscape:version="1.0 (4035a4fb49, 2020-05-01)"><metadata
   id="metadata9"><rdf:RDF><cc:Work
       rdf:about=""><dc:format>image/svg+xml</dc:format><dc:type
         rdf:resource="http://purl.org/dc/dcmitype/StillImage" /><dc:title /></cc:Work></rdf:RDF></metadata><defs
   id="defs7" /><sodipodi:namedview
   inkscape:snap-nodes="true"
   inkscape:snap-bbox-midpoints="true"
   inkscape:snap-bbox="true"
   inkscape:document-rotation="0"
   pagecolor="#ffffff"
   bordercolor="#666666"
   borderopacity="1"
   objecttolerance="10"
   gridtolerance="10"
   guidetolerance="10"
   inkscape:pageopacity="0"
   inkscape:pageshadow="2"
   inkscape:window-width="1278"
   inkscape:window-height="1349"
   id="namedview5"
   showgrid="false"
   inkscape:zoom="1.0019531"
   inkscape:cx="305.27145"
   inkscape:cy="340.99145"
   inkscape:window-x="181"
   inkscape:window-y="207"
   inkscape:window-maximized="0"
   inkscape:current-layer="g4" />
<path
   sodipodi:nodetypes="ccscscsccsssss"
   id="stop-icon"
   d="m 256,92.481 c 44.433,0 86.18,17.068 117.553,48.064 31.241,30.866 48.447,71.868 48.447,115.454 0,43.586 -17.206,84.588 -48.448,115.455 -31.372,30.994 -73.12,48.064 -117.552,48.064 -44.432,0 -86.179,-17.07 -117.552,-48.064 C 107.206,340.587 90,299.585 90,255.999 90,212.413 107.206,171.411 138.448,140.546 169.821,109.55 211.568,92.481 256,92.481 m 0,-40 c -113.771,0 -206,91.117 -206,203.518 0,112.398 92.229,203.52 206,203.52 113.772,0 206,-91.121 206,-203.52 0,-112.4 -92.228,-203.518 -206,-203.518 z"
   style="fill:#efefef;fill-opacity:1" />
<g
   id="g4"
   transform="matrix(2.8615372,0,0,2.8615372,134.38323,134.38324)"
   style="fill:#efefef;fill-opacity:1"><path
     sodipodi:nodetypes="ccccsccscccccccssccccccccccsccs"
     id="path2"
     d="M 1.7979043,32.233989 H 65.427002 l -3.164001,8.012009 c -0.131996,0.332001 -0.025,0.709 0.260002,0.924 0.140999,0.105 0.308998,0.16 0.476997,0.16 0.169998,0 0.340004,-0.055 0.482002,-0.163998 L 82.892997,26.240001 c 0.195,-0.147999 0.308998,-0.381001 0.308998,-0.626999 0,-0.245998 -0.112999,-0.479 -0.308998,-0.626999 L 63.481002,10.061 c -0.282997,-0.216999 -0.676003,-0.219 -0.959,-0.004 -0.285004,0.215 -0.391998,0.591999 -0.260002,0.924 l 3.251999,8.234113 H 1.798004 Z M 63.481003,43.834 c -0.142998,-0.109001 -0.313004,-0.164001 -0.482002,-0.164001 -0.167999,0 -0.335999,0.055 -0.476997,0.160004 -0.285004,0.214996 -0.391998,0.591999 -0.260002,0.924 l 3.164001,8.011958 H 1.7979043 V 65.785886 H 65.515001 l -3.251999,8.234112 c -0.131996,0.332001 -0.025,0.709 0.260002,0.924004 0.282997,0.214996 0.676003,0.212997 0.959,-0.004 L 82.894007,60.014001 c 0.195,-0.148003 0.308998,-0.380997 0.308998,-0.626999 0,-0.246002 -0.112999,-0.479004 -0.308998,-0.626999 L 63.481005,43.834 Z"
     style="fill:#efefef;fill-opacity:1" /></g></svg>
