<?xml version="1.0" encoding="UTF-8" standalone="no"?>
<svg
   xmlns:dc="http://purl.org/dc/elements/1.1/"
   xmlns:cc="http://creativecommons.org/ns#"
   xmlns:rdf="http://www.w3.org/1999/02/22-rdf-syntax-ns#"
   xmlns:svg="http://www.w3.org/2000/svg"
   xmlns="http://www.w3.org/2000/svg"
   xmlns:sodipodi="http://sodipodi.sourceforge.net/DTD/sodipodi-0.dtd"
   xmlns:inkscape="http://www.inkscape.org/namespaces/inkscape"
   version="1.1"
   x="0px"
   y="0px"
   width="100%"
   height="100%"
   viewBox="0 0 512 512"
   enable-background="new 0 0 512 512"
   xml:space="preserve"
   id="svg3"
   sodipodi:docname="repeatnone.svg"
   inkscape:export-filename="C:\Users\samho\AppData\Roaming\Elgato\StreamDeck\Plugins\com.samhorne.mediamonkey5.sdPlugin\images\repeatone\actions\repeatone@2x.png"
   inkscape:export-xdpi="7.5"
   inkscape:export-ydpi="7.5"
   inkscape:version="1.0 (4035a4fb49, 2020-05-01)"><metadata
   id="metadata9"><rdf:RDF><cc:Work
       rdf:about=""><dc:format>image/svg+xml</dc:format><dc:type
         rdf:resource="http://purl.org/dc/dcmitype/StillImage" /><dc:title /></cc:Work></rdf:RDF></metadata><defs
   id="defs7" /><sodipodi:namedview
   inkscape:snap-nodes="false"
   inkscape:snap-bbox-midpoints="true"
   inkscape:snap-bbox="true"
   inkscape:document-rotation="0"
   pagecolor="#ffffff"
   bordercolor="#666666"
   borderopacity="1"
   objecttolerance="10"
   gridtolerance="10"
   guidetolerance="10"
   inkscape:pageopacity="0"
   inkscape:pageshadow="2"
   inkscape:window-width="1278"
   inkscape:window-height="1349"
   id="namedview5"
   showgrid="false"
   inkscape:zoom="0.50097655"
   inkscape:cx="324.46964"
   inkscape:cy="188.10871"
   inkscape:window-x="111"
   inkscape:window-y="22"
   inkscape:window-maximized="0"
   inkscape:current-layer="svg3"
   inkscape:snap-global="true" />
<g
   id="g851"
   transform="matrix(1.0005324,0,0,0.98976355,-0.13624241,2.6205481)"><path
     id="path848"
     style="fill:none;fill-opacity:1;stroke:#efefef;stroke-width:40.2669;stroke-linecap:round;stroke-miterlimit:4;stroke-dasharray:none;stroke-opacity:1;paint-order:normal"
     sodipodi:type="arc"
     sodipodi:cx="256"
     sodipodi:cy="256"
     sodipodi:rx="185.48328"
     sodipodi:ry="185.48328"
     sodipodi:start="0.75921822"
     sodipodi:end="6.1610123"
     sodipodi:arc-type="arc"
     d="M 390.54482,383.67826 A 185.48328,185.48328 0 0 1 160.81614,415.19824 185.48328,185.48328 0 0 1 79.846696,197.91335 185.48328,185.48328 0 0 1 274.18055,71.409877 185.48328,185.48328 0 0 1 440.10071,233.39528"
     sodipodi:open="true" /></g><path
   d="m 437.23871,213.24383 -47.56439,-5.0279 c -1.08568,-0.41953 -2.23223,0.15805 -2.79508,1.42579 -0.26595,0.61971 -0.37879,1.35052 -0.29126,2.02359 0.0835,0.70819 0.30957,1.38017 0.7174,1.91735 l 54.90737,74.5077 c 0.54862,0.75367 1.33454,1.13344 2.09304,1.03621 0.75849,-0.0972 1.4586,-0.64319 1.83792,-1.52349 l 38.53886,-86.10432 c 0.56286,-1.26775 0.3936,-2.90169 -0.39491,-3.9693 -0.78466,-1.10268 -2.02521,-1.38063 -2.98772,-0.72033 z"
   id="path6"
   style="stroke-width:0.31192;stroke-miterlimit:4;stroke-dasharray:none;fill:#efefef;fill-opacity:1"
   inkscape:transform-center-x="7.4853803"
   inkscape:transform-center-y="9.4814817" /><path
   class="state1"
   d="m 307.84517,381.243 h -105.069 v -41.09386 h 29.36104 V 189.72458 l -29.36104,27.96016 -7e-5,-56.56243 29.36111,-30.4118 h 46.34734 l -3.8e-4,209.43863 h 29.361 z"
   id="path8"
   style="fill:#efefef;fill-opacity:1;stroke-width:0.58372"
   sodipodi:nodetypes="cccccccccccc" />
</svg>
