<?xml version="1.0" encoding="UTF-8" standalone="no"?>
<svg
   xmlns:dc="http://purl.org/dc/elements/1.1/"
   xmlns:cc="http://creativecommons.org/ns#"
   xmlns:rdf="http://www.w3.org/1999/02/22-rdf-syntax-ns#"
   xmlns:svg="http://www.w3.org/2000/svg"
   xmlns="http://www.w3.org/2000/svg"
   xmlns:sodipodi="http://sodipodi.sourceforge.net/DTD/sodipodi-0.dtd"
   xmlns:inkscape="http://www.inkscape.org/namespaces/inkscape"
   inkscape:version="1.0 (4035a4fb49, 2020-05-01)"
   inkscape:export-ydpi="3.75"
   inkscape:export-xdpi="3.75"
   inkscape:export-filename="C:\Users\samho\AppData\Roaming\Elgato\StreamDeck\Plugins\com.samhorne.mediamonkey5.sdPlugin\images\actions\stop\stop.png"
   sodipodi:docname="player_stop.svg"
   id="svg3"
   xml:space="preserve"
   enable-background="new 0 0 512 512"
   viewBox="0 0 512 512"
   height="100%"
   width="100%"
   y="0px"
   x="0px"
   version="1.1"><metadata
   id="metadata9"><rdf:RDF><cc:Work
       rdf:about=""><dc:format>image/svg+xml</dc:format><dc:type
         rdf:resource="http://purl.org/dc/dcmitype/StillImage" /></cc:Work></rdf:RDF></metadata><defs
   id="defs7" /><sodipodi:namedview
   inkscape:current-layer="svg3"
   inkscape:window-maximized="0"
   inkscape:window-y="0"
   inkscape:window-x="-7"
   inkscape:cy="256"
   inkscape:cx="256"
   inkscape:zoom="2.0039062"
   showgrid="false"
   id="namedview5"
   inkscape:window-height="1378"
   inkscape:window-width="1278"
   inkscape:pageshadow="2"
   inkscape:pageopacity="0"
   guidetolerance="10"
   gridtolerance="10"
   objecttolerance="10"
   borderopacity="1"
   bordercolor="#666666"
   pagecolor="#ffffff" />
<path
   style="fill:#efefef;fill-opacity:1"
   d="M335.084,339.042H178.916V172.958h156.168V339.042z M256,92.481c44.433,0,86.18,17.068,117.553,48.064  C404.794,171.411,422,212.413,422,255.999s-17.206,84.588-48.448,115.455c-31.372,30.994-73.12,48.064-117.552,48.064  s-86.179-17.07-117.552-48.064C107.206,340.587,90,299.585,90,255.999s17.206-84.588,48.448-115.453  C169.821,109.55,211.568,92.481,256,92.481 M256,52.481c-113.771,0-206,91.117-206,203.518c0,112.398,92.229,203.52,206,203.52  c113.772,0,206-91.121,206-203.52C462,143.599,369.772,52.481,256,52.481L256,52.481z"
   id="stop-icon" />
</svg>
