<?xml version="1.0" encoding="UTF-8" standalone="no"?>
<svg
   xmlns:dc="http://purl.org/dc/elements/1.1/"
   xmlns:cc="http://creativecommons.org/ns#"
   xmlns:rdf="http://www.w3.org/1999/02/22-rdf-syntax-ns#"
   xmlns:svg="http://www.w3.org/2000/svg"
   xmlns="http://www.w3.org/2000/svg"
   xmlns:sodipodi="http://sodipodi.sourceforge.net/DTD/sodipodi-0.dtd"
   xmlns:inkscape="http://www.inkscape.org/namespaces/inkscape"
   version="1.1"
   x="0px"
   y="0px"
   width="100%"
   height="100%"
   viewBox="0 0 512 512"
   enable-background="new 0 0 512 512"
   xml:space="preserve"
   id="svg3"
   sodipodi:docname="playalbum.svg"
   inkscape:export-filename="C:\Users\samho\AppData\Roaming\Elgato\StreamDeck\Plugins\com.samhorne.mediamonkey5.sdPlugin\images\playalbum\keys\playalbum.png"
   inkscape:export-xdpi="13.5"
   inkscape:export-ydpi="13.5"
   inkscape:version="1.0 (4035a4fb49, 2020-05-01)"><metadata
   id="metadata9"><rdf:RDF><cc:Work
       rdf:about=""><dc:format>image/svg+xml</dc:format><dc:type
         rdf:resource="http://purl.org/dc/dcmitype/StillImage" /><dc:title /></cc:Work></rdf:RDF></metadata><defs
   id="defs7" /><sodipodi:namedview
   inkscape:snap-nodes="false"
   inkscape:snap-bbox-midpoints="true"
   inkscape:snap-bbox="true"
   inkscape:document-rotation="0"
   pagecolor="#ffffff"
   bordercolor="#666666"
   borderopacity="1"
   objecttolerance="10"
   gridtolerance="10"
   guidetolerance="10"
   inkscape:pageopacity="0"
   inkscape:pageshadow="2"
   inkscape:window-width="2560"
   inkscape:window-height="1387"
   id="namedview5"
   showgrid="false"
   inkscape:zoom="0.70848783"
   inkscape:cx="206.07945"
   inkscape:cy="357.85618"
   inkscape:window-x="-8"
   inkscape:window-y="-8"
   inkscape:window-maximized="1"
   inkscape:current-layer="svg3" />
<path
   sodipodi:nodetypes="ccscscsccsssss"
   id="stop-icon"
   d="m 256,92.481 c 44.433,0 86.18,17.068 117.553,48.064 31.241,30.866 48.447,71.868 48.447,115.454 0,43.586 -17.206,84.588 -48.448,115.455 -31.372,30.994 -73.12,48.064 -117.552,48.064 -44.432,0 -86.179,-17.07 -117.552,-48.064 C 107.206,340.587 90,299.585 90,255.999 90,212.413 107.206,171.411 138.448,140.546 169.821,109.55 211.568,92.481 256,92.481 m 0,-40 c -113.771,0 -206,91.117 -206,203.518 0,112.398 92.229,203.52 206,203.52 113.772,0 206,-91.121 206,-203.52 0,-112.4 -92.228,-203.518 -206,-203.518 z"
   style="fill:#efefef;fill-opacity:1" />
<g
   id="g6"
   transform="matrix(12.610687,0,0,12.610687,87.819562,92.048734)"
   style="fill:#efefef;fill-opacity:1"><path
     id="path2"
     d="M 20.652,8.423 C 18.124,4.383 12.8,3.157 8.759,5.685 4.719,8.213 3.493,13.538 6.02,17.578 c 2.528,4.041 7.852,5.267 11.893,2.739 4.041,-2.529 5.267,-7.853 2.739,-11.894 z M 7.991,18.289 c 0,0 -0.508,-0.31 -1.082,-1.228 C 6.334,16.143 6.243,15.494 6.243,15.494 l 4.466,-1.688 c 0,0 -0.013,0.482 0.172,0.78 0.186,0.297 0.618,0.482 0.618,0.482 z m 6.235,-3.868 c -0.785,0.491 -1.819,0.252 -2.309,-0.532 -0.491,-0.784 -0.253,-1.817 0.532,-2.309 0.784,-0.491 1.817,-0.252 2.309,0.532 0.489,0.784 0.251,1.818 -0.532,2.309 z m 2.067,-2.109 c 0,0 0.013,-0.483 -0.173,-0.781 -0.187,-0.298 -0.617,-0.482 -0.617,-0.482 l 3.507,-3.22 c 0,0 0.509,0.308 1.083,1.226 0.574,0.918 0.665,1.567 0.665,1.567 z"
     style="fill:#efefef;fill-opacity:1" /><circle
     id="circle4"
     r="0.58700001"
     cy="13"
     cx="13.336"
     style="fill:#efefef;fill-opacity:1" /></g></svg>
