<?xml version="1.0" encoding="UTF-8" standalone="no"?>
<svg
   xmlns:dc="http://purl.org/dc/elements/1.1/"
   xmlns:cc="http://creativecommons.org/ns#"
   xmlns:rdf="http://www.w3.org/1999/02/22-rdf-syntax-ns#"
   xmlns:svg="http://www.w3.org/2000/svg"
   xmlns="http://www.w3.org/2000/svg"
   xmlns:sodipodi="http://sodipodi.sourceforge.net/DTD/sodipodi-0.dtd"
   xmlns:inkscape="http://www.inkscape.org/namespaces/inkscape"
   inkscape:version="1.0 (4035a4fb49, 2020-05-01)"
   inkscape:export-ydpi="13.5"
   inkscape:export-xdpi="13.5"
   inkscape:export-filename="C:\Users\samho\AppData\Roaming\Elgato\StreamDeck\Plugins\com.samhorne.mediamonkey5.sdPlugin\images\plugin\plugin.png"
   sodipodi:docname="mediamonkey.svg"
   id="svg3"
   xml:space="preserve"
   enable-background="new 0 0 512 512"
   viewBox="0 0 512 512"
   height="100%"
   width="100%"
   y="0px"
   x="0px"
   version="1.1"><metadata
   id="metadata9"><rdf:RDF><cc:Work
       rdf:about=""><dc:format>image/svg+xml</dc:format><dc:type
         rdf:resource="http://purl.org/dc/dcmitype/StillImage" /><dc:title></dc:title></cc:Work></rdf:RDF></metadata><defs
   id="defs7" /><sodipodi:namedview
   inkscape:current-layer="svg3"
   inkscape:window-maximized="0"
   inkscape:window-y="394"
   inkscape:window-x="606"
   inkscape:cy="348.94277"
   inkscape:cx="418.70321"
   inkscape:zoom="0.50097655"
   showgrid="false"
   id="namedview5"
   inkscape:window-height="1349"
   inkscape:window-width="1278"
   inkscape:pageshadow="2"
   inkscape:pageopacity="0"
   guidetolerance="10"
   gridtolerance="10"
   objecttolerance="10"
   borderopacity="1"
   bordercolor="#666666"
   pagecolor="#ffffff"
   inkscape:document-rotation="0"
   inkscape:snap-bbox="true"
   inkscape:snap-bbox-midpoints="true"
   inkscape:snap-nodes="false" />
<path
   style="fill:#efefef;fill-opacity:1"
   d="m 256,92.481 c 44.433,0 86.18,17.068 117.553,48.064 31.241,30.866 48.447,71.868 48.447,115.454 0,43.586 -17.206,84.588 -48.448,115.455 -31.372,30.994 -73.12,48.064 -117.552,48.064 -44.432,0 -86.179,-17.07 -117.552,-48.064 C 107.206,340.587 90,299.585 90,255.999 90,212.413 107.206,171.411 138.448,140.546 169.821,109.55 211.568,92.481 256,92.481 m 0,-40 c -113.771,0 -206,91.117 -206,203.518 0,112.398 92.229,203.52 206,203.52 113.772,0 206,-91.121 206,-203.52 0,-112.4 -92.228,-203.518 -206,-203.518 z"
   id="stop-icon"
   sodipodi:nodetypes="ccscscsccsssss" />
<path
   d="m 62.474376,149.68992 c -12.321136,15.84759 -28.878322,18.98701 -28.878322,60.29398 0,27.17959 22.405965,52.29493 57.606116,52.29493 16.06263,0 76.05557,-10.06333 108.95493,-38.92016 -4.96716,-4.96716 -24.36273,-15.58957 -24.36273,-41.43599 0,-25.84642 30.46954,-67.97049 61.8422,-67.97049 31.37265,0 70.48633,30.77057 70.48633,46.8332 0,19.30955 -16.17014,41.15644 7.54751,23.54561 23.71762,-17.58932 59.67039,-45.90857 116.28739,-45.90857 48.18788,0 87.79612,51.15526 87.79612,91.70963 0,32.89936 -29.02885,82.87198 -47.45678,72.31408 -13.84784,-7.93454 0.45156,-29.39439 5.03165,-40.87692 4.60162,-11.48251 21.67488,-70.40032 -42.27459,-75.38897 -46.89771,0 -117.083,58.96081 -117.083,79.99059 0,29.82445 3.05341,62.7238 -10.70842,84.91474 0,10.70842 19.11604,86.44145 -27.54515,94.87056 4.96717,4.96716 7.65502,39.02767 -12.23511,39.02767 -10.70842,0 -19.89014,-21.41684 -27.54515,-29.07185 -7.65501,-7.65501 -39.78027,-24.47024 3.0534,-45.13447 4.96716,-4.96716 19.11603,-9.18172 10.70842,-29.84596 -9.18171,-3.0534 -41.30696,-29.84595 -48.18788,-2.3008 -3.0534,14.53593 -4.58011,36.72687 -39.78026,36.72687 -4.58011,0 -20.64274,9.93431 -37.47946,-0.77411 -9.56877,-9.56876 -35.95276,-17.61083 26.77104,-40.55437 0,-16.06263 1.11814,-30.08248 1.11814,-35.95276 0,-5.87027 -7.24645,-21.41684 23.37359,-28.31925 19.89014,-4.58011 27.54516,-8.40762 27.54516,-14.53592 0,-4.92416 -12.40715,-5.22519 -24.49174,1.05364 -12.08461,6.25732 -60.42301,21.2018 -91.04306,16.72921 -33.436924,-4.83814 -99.472169,-23.15857 -99.472169,-110.30961 0,-26.01843 15.3530286,-57.64913 45.112971,-73.69026 29.73844,-16.04111 37.629983,4.83815 25.308854,20.68575"
   id="path10"
   style="fill:#efefef;fill-opacity:1;stroke-width:2.15029" /></svg>
