<?xml version="1.0" encoding="UTF-8" standalone="no"?>
<svg
   xmlns:dc="http://purl.org/dc/elements/1.1/"
   xmlns:cc="http://creativecommons.org/ns#"
   xmlns:rdf="http://www.w3.org/1999/02/22-rdf-syntax-ns#"
   xmlns:svg="http://www.w3.org/2000/svg"
   xmlns="http://www.w3.org/2000/svg"
   xmlns:sodipodi="http://sodipodi.sourceforge.net/DTD/sodipodi-0.dtd"
   xmlns:inkscape="http://www.inkscape.org/namespaces/inkscape"
   version="1.1"
   x="0px"
   y="0px"
   width="100%"
   height="100%"
   viewBox="0 0 512 512"
   enable-background="new 0 0 512 512"
   xml:space="preserve"
   id="svg3"
   sodipodi:docname="add.svg"
   inkscape:export-filename="C:\Users\samho\AppData\Roaming\Elgato\StreamDeck\Plugins\com.samhorne.mediamonkey5.sdPlugin\images\playlist\actions\add.png"
   inkscape:export-xdpi="3.75"
   inkscape:export-ydpi="3.75"
   inkscape:version="1.0 (4035a4fb49, 2020-05-01)"><metadata
   id="metadata9"><rdf:RDF><cc:Work
       rdf:about=""><dc:format>image/svg+xml</dc:format><dc:type
         rdf:resource="http://purl.org/dc/dcmitype/StillImage" /><dc:title /></cc:Work></rdf:RDF></metadata><defs
   id="defs7" /><sodipodi:namedview
   inkscape:snap-nodes="false"
   inkscape:snap-bbox-midpoints="true"
   inkscape:snap-bbox="true"
   inkscape:document-rotation="0"
   pagecolor="#ffffff"
   bordercolor="#666666"
   borderopacity="1"
   objecttolerance="10"
   gridtolerance="10"
   guidetolerance="10"
   inkscape:pageopacity="0"
   inkscape:pageshadow="2"
   inkscape:window-width="1278"
   inkscape:window-height="1349"
   id="namedview5"
   showgrid="false"
   inkscape:zoom="0.70848783"
   inkscape:cx="206.07945"
   inkscape:cy="357.85618"
   inkscape:window-x="591"
   inkscape:window-y="142"
   inkscape:window-maximized="0"
   inkscape:current-layer="svg3" />
<path
   sodipodi:nodetypes="ccscscsccsssss"
   id="stop-icon"
   d="m 256,92.481 c 44.433,0 86.18,17.068 117.553,48.064 31.241,30.866 48.447,71.868 48.447,115.454 0,43.586 -17.206,84.588 -48.448,115.455 -31.372,30.994 -73.12,48.064 -117.552,48.064 -44.432,0 -86.179,-17.07 -117.552,-48.064 C 107.206,340.587 90,299.585 90,255.999 90,212.413 107.206,171.411 138.448,140.546 169.821,109.55 211.568,92.481 256,92.481 m 0,-40 c -113.771,0 -206,91.117 -206,203.518 0,112.398 92.229,203.52 206,203.52 113.772,0 206,-91.121 206,-203.52 0,-112.4 -92.228,-203.518 -206,-203.518 z"
   style="fill:#efefef;fill-opacity:1" />
<g
   id="_x33_44._Playlist"
   transform="matrix(3.7929443,0,0,3.7929443,126.49656,176.35007)"
   style="fill:#efefef;fill-opacity:1"><g
     id="g4"
     style="fill:#efefef;fill-opacity:1"><path
       id="path2"
       d="M 2,19.999 H 14 V 16 H 2 c -1.104,0 -2,0.895 -2,1.999 0,1.104 0.896,2 2,2 z M 2,12 H 14 V 11.999 L 31.141,8 H 2 C 0.896,8 0,8.895 0,9.999 V 10 c 0,1.104 0.896,2 2,2 z M 2,4 H 32 C 33.104,4 34,3.104 34,2 34,0.895 33.104,0 32,0 H 2 C 0.896,0 0,0.895 0,2 0,3.104 0.896,4 2,4 Z M 2,28 H 14 V 23.999 H 2 c -1.104,0 -2,0.896 -2,2 V 26 c 0,1.104 0.896,2 2,2 z M 34.077,12.784 21.922,15.215 C 19.756,15.648 18,17.79 18,19.999 V 32.1 c -0.323,-0.065 -0.657,-0.101 -1,-0.101 -2.762,0 -5,2.239 -5,5 0,2.762 2.238,5 5,5 2.761,0 5,-2.238 5,-5 0,-0.255 -0.038,-0.499 -0.075,-0.743 L 22,36.241 V 22.285 L 34,19.999 V 28.1 c -0.323,-0.065 -0.657,-0.101 -1,-0.101 -2.762,0 -5,2.239 -5,5 0,2.762 2.238,5 5,5 2.687,0 4.863,-2.125 4.979,-4.785 L 38,33.21 V 16 c 0,-2.21 -1.757,-3.649 -3.923,-3.216 z M 0,33.999 c 0,1.104 0.896,2 2,2 h 6.059 c 0.163,-1.469 0.676,-2.831 1.459,-4 H 2 c -1.104,0 -2,0.896 -2,2 z"
       style="fill:#efefef;fill-opacity:1" /></g></g><text
   id="text837"
   y="341.91516"
   x="271.98553"
   style="font-style:normal;font-variant:normal;font-weight:bold;font-stretch:normal;font-size:262.618px;line-height:1.25;font-family:Bahnschrift;-inkscape-font-specification:'Bahnschrift, Bold';font-variant-ligatures:normal;font-variant-caps:normal;font-variant-numeric:normal;font-variant-east-asian:normal;fill:#efefef;fill-opacity:1;stroke:none;stroke-width:22.6606;stroke-miterlimit:4;stroke-dasharray:none"
   xml:space="preserve"><tspan
     style="font-style:normal;font-variant:normal;font-weight:bold;font-stretch:normal;font-size:262.618px;font-family:Bahnschrift;-inkscape-font-specification:'Bahnschrift, Bold';font-variant-ligatures:normal;font-variant-caps:normal;font-variant-numeric:normal;font-variant-east-asian:normal;fill:#efefef;fill-opacity:1;stroke-width:22.6606;stroke-miterlimit:4;stroke-dasharray:none"
     y="341.91516"
     x="271.98553"
     id="tspan835"
     sodipodi:role="line">+</tspan></text></svg>
