<?xml version="1.0" encoding="UTF-8" standalone="no"?>
<svg
   xmlns:dc="http://purl.org/dc/elements/1.1/"
   xmlns:cc="http://creativecommons.org/ns#"
   xmlns:rdf="http://www.w3.org/1999/02/22-rdf-syntax-ns#"
   xmlns:svg="http://www.w3.org/2000/svg"
   xmlns="http://www.w3.org/2000/svg"
   xmlns:sodipodi="http://sodipodi.sourceforge.net/DTD/sodipodi-0.dtd"
   xmlns:inkscape="http://www.inkscape.org/namespaces/inkscape"
   inkscape:version="1.0 (4035a4fb49, 2020-05-01)"
   inkscape:export-ydpi="13.5"
   inkscape:export-xdpi="13.5"
   inkscape:export-filename="C:\Users\samho\AppData\Roaming\Elgato\StreamDeck\Plugins\com.samhorne.mediamonkey5.sdPlugin\images\keys\skipForward\skipForward.png"
   sodipodi:docname="player_next.svg"
   id="svg3"
   xml:space="preserve"
   enable-background="new 0 0 512 512"
   viewBox="0 0 512 512"
   height="100%"
   width="100%"
   y="0px"
   x="0px"
   version="1.1"
   aria-label="Next track"><metadata
   id="metadata9"><rdf:RDF><cc:Work
       rdf:about=""><dc:format>image/svg+xml</dc:format><dc:type
         rdf:resource="http://purl.org/dc/dcmitype/StillImage" /></cc:Work></rdf:RDF></metadata><defs
   id="defs7" /><sodipodi:namedview
   inkscape:current-layer="svg3"
   inkscape:window-maximized="0"
   inkscape:window-y="0"
   inkscape:window-x="0"
   inkscape:cy="162.25643"
   inkscape:cx="278.72682"
   inkscape:zoom="1.0019531"
   showgrid="false"
   id="namedview5"
   inkscape:window-height="1208"
   inkscape:window-width="1270"
   inkscape:pageshadow="2"
   inkscape:pageopacity="0"
   guidetolerance="10"
   gridtolerance="10"
   objecttolerance="10"
   borderopacity="1"
   bordercolor="#666666"
   pagecolor="#ffffff" />
<path
   style="fill:#efefef;fill-opacity:1"
   d="M364.104,314.154h-22.852v-58.153l-93.728,64.791v-64.721l-93.627,64.721V191.208l93.627,64.723v-64.723  l93.728,64.793V256v-58.154h22.852V314.154z M256,90c-91.742,0-166,74.245-166,166c0,91.741,74.245,166,166,166  c91.742,0,166-74.245,166-166C422,164.259,347.755,90,256,90z M256,50c113.771,0,206,92.229,206,206s-92.229,206-206,206  S50,369.771,50,256S142.229,50,256,50z"
   id="next-icon" />
</svg>
