<?xml version="1.0" encoding="UTF-8" standalone="no"?>
<svg
   xmlns:dc="http://purl.org/dc/elements/1.1/"
   xmlns:cc="http://creativecommons.org/ns#"
   xmlns:rdf="http://www.w3.org/1999/02/22-rdf-syntax-ns#"
   xmlns:svg="http://www.w3.org/2000/svg"
   xmlns="http://www.w3.org/2000/svg"
   xmlns:sodipodi="http://sodipodi.sourceforge.net/DTD/sodipodi-0.dtd"
   xmlns:inkscape="http://www.inkscape.org/namespaces/inkscape"
   inkscape:version="1.0 (4035a4fb49, 2020-05-01)"
   inkscape:export-ydpi="3.75"
   inkscape:export-xdpi="3.75"
   inkscape:export-filename="C:\Users\samho\AppData\Roaming\Elgato\StreamDeck\Plugins\com.samhorne.mediamonkey5.sdPlugin\images\actions\skipBackward\skipBackward.png"
   sodipodi:docname="player_prev.svg"
   id="svg3"
   xml:space="preserve"
   enable-background="new 0 0 512 512"
   viewBox="0 0 512 512"
   height="100%"
   width="100%"
   y="0px"
   x="0px"
   version="1.1"
   aria-label="Previous track"><metadata
   id="metadata9"><rdf:RDF><cc:Work
       rdf:about=""><dc:format>image/svg+xml</dc:format><dc:type
         rdf:resource="http://purl.org/dc/dcmitype/StillImage" /></cc:Work></rdf:RDF></metadata><defs
   id="defs7" /><sodipodi:namedview
   inkscape:current-layer="svg3"
   inkscape:window-maximized="0"
   inkscape:window-y="0"
   inkscape:window-x="-7"
   inkscape:cy="41.499893"
   inkscape:cx="157.25951"
   inkscape:zoom="0.25048828"
   showgrid="false"
   id="namedview5"
   inkscape:window-height="1378"
   inkscape:window-width="1278"
   inkscape:pageshadow="2"
   inkscape:pageopacity="0"
   guidetolerance="10"
   gridtolerance="10"
   objecttolerance="10"
   borderopacity="1"
   bordercolor="#666666"
   pagecolor="#ffffff" />
<path
   inkscape:export-ydpi="16.776699"
   inkscape:export-xdpi="16.776699"
   inkscape:export-filename="C:\Users\samho\AppData\Roaming\Elgato\StreamDeck\Plugins\com.samhorne.mediamonkey5.sdPlugin\images\keys\skipBackward\skipBackward.png"
   style="fill:#efefef;fill-opacity:1"
   d="M147.896,197.846h22.852V256v0.001l93.729-64.793v64.723l93.627-64.723v129.584l-93.627-64.721v64.721  l-93.729-64.791v58.153h-22.852V197.846z M90,256c0,91.755,74.258,166,166,166c91.755,0,166-74.259,166-166  c0-91.755-74.258-166-166-166C164.245,90,90,164.259,90,256z M462,256c0,113.771-92.229,206-206,206S50,369.771,50,256  S142.229,50,256,50S462,142.229,462,256z"
   id="prev-icon" />
</svg>
