<?xml version="1.0" encoding="UTF-8" standalone="no"?>
<svg
   xmlns:dc="http://purl.org/dc/elements/1.1/"
   xmlns:cc="http://creativecommons.org/ns#"
   xmlns:rdf="http://www.w3.org/1999/02/22-rdf-syntax-ns#"
   xmlns:svg="http://www.w3.org/2000/svg"
   xmlns="http://www.w3.org/2000/svg"
   xmlns:sodipodi="http://sodipodi.sourceforge.net/DTD/sodipodi-0.dtd"
   xmlns:inkscape="http://www.inkscape.org/namespaces/inkscape"
   inkscape:version="1.0 (4035a4fb49, 2020-05-01)"
   inkscape:export-ydpi="13.5"
   inkscape:export-xdpi="13.5"
   inkscape:export-filename="C:\Users\samho\AppData\Roaming\Elgato\StreamDeck\Plugins\com.samhorne.mediamonkey5.sdPlugin\images\keys\playpause\playpause.png"
   sodipodi:docname="playartist.svg"
   id="svg3"
   xml:space="preserve"
   enable-background="new 0 0 512 512"
   viewBox="0 0 512 512"
   height="100%"
   width="100%"
   y="0px"
   x="0px"
   version="1.1"><metadata
   id="metadata9"><rdf:RDF><cc:Work
       rdf:about=""><dc:format>image/svg+xml</dc:format><dc:type
         rdf:resource="http://purl.org/dc/dcmitype/StillImage" /><dc:title /></cc:Work></rdf:RDF></metadata><defs
   id="defs7" /><sodipodi:namedview
   inkscape:current-layer="svg3"
   inkscape:window-maximized="1"
   inkscape:window-y="-8"
   inkscape:window-x="-8"
   inkscape:cy="372.41944"
   inkscape:cx="49.458148"
   inkscape:zoom="0.70848783"
   showgrid="false"
   id="namedview5"
   inkscape:window-height="1387"
   inkscape:window-width="2560"
   inkscape:pageshadow="2"
   inkscape:pageopacity="0"
   guidetolerance="10"
   gridtolerance="10"
   objecttolerance="10"
   borderopacity="1"
   bordercolor="#666666"
   pagecolor="#ffffff"
   inkscape:document-rotation="0"
   inkscape:snap-bbox="true"
   inkscape:snap-bbox-midpoints="true"
   inkscape:snap-nodes="false" />
<path
   style="fill:#efefef;fill-opacity:1"
   d="m 256,92.481 c 44.433,0 86.18,17.068 117.553,48.064 31.241,30.866 48.447,71.868 48.447,115.454 0,43.586 -17.206,84.588 -48.448,115.455 -31.372,30.994 -73.12,48.064 -117.552,48.064 -44.432,0 -86.179,-17.07 -117.552,-48.064 C 107.206,340.587 90,299.585 90,255.999 90,212.413 107.206,171.411 138.448,140.546 169.821,109.55 211.568,92.481 256,92.481 m 0,-40 c -113.771,0 -206,91.117 -206,203.518 0,112.398 92.229,203.52 206,203.52 113.772,0 206,-91.121 206,-203.52 0,-112.4 -92.228,-203.518 -206,-203.518 z"
   id="stop-icon"
   sodipodi:nodetypes="ccscscsccsssss" />
<g
   style="fill:#efefef;fill-opacity:1"
   transform="matrix(0.46894571,0,0,0.46894571,129.06624,137.3837)"
   id="Layer_2"><path
     style="fill:#efefef;fill-opacity:1"
     d="m 402.17,336.585 c -60.435,-21.791 -79.744,-40.18 -79.744,-79.543 0,-4.342 0.625,-7.617 1.691,-10.352 4.743,-12.161 18.245,-13.512 24.858,-48.836 3.365,-17.954 19.663,-0.292 22.779,-41.27 0,-16.328 -8.898,-20.392 -8.898,-20.392 0,0 4.52,-24.173 6.292,-42.771 2.198,-23.176 -13.531,-83.057 -97.41,-83.057 -0.362,0 -0.704,0.02 -1.058,0.025 -0.357,-0.006 -0.698,-0.025 -1.064,-0.025 -83.878,0 -99.604,59.881 -97.409,83.057 1.771,18.598 6.294,42.771 6.294,42.771 0,0 -8.897,4.063 -8.897,20.392 3.12,40.978 19.417,23.315 22.779,41.27 6.613,35.324 20.119,36.675 24.86,48.836 1.064,2.734 1.689,6.01 1.689,10.352 0,39.363 -19.313,57.752 -79.747,79.543 -60.62,21.859 -87.884,44.15 -87.884,59.353 0,15.182 0,99.583 0,99.583 h 219.227 0.302 219.227 c 0,0 0,-84.401 0,-99.583 0,-15.203 -27.26,-37.494 -87.887,-59.353 z"
     id="path2" /></g></svg>
