<?xml version="1.0" encoding="UTF-8" standalone="no"?>
<svg
   xmlns:dc="http://purl.org/dc/elements/1.1/"
   xmlns:cc="http://creativecommons.org/ns#"
   xmlns:rdf="http://www.w3.org/1999/02/22-rdf-syntax-ns#"
   xmlns:svg="http://www.w3.org/2000/svg"
   xmlns="http://www.w3.org/2000/svg"
   xmlns:sodipodi="http://sodipodi.sourceforge.net/DTD/sodipodi-0.dtd"
   xmlns:inkscape="http://www.inkscape.org/namespaces/inkscape"
   version="1.1"
   x="0px"
   y="0px"
   width="100%"
   height="100%"
   viewBox="0 0 512 512"
   enable-background="new 0 0 512 512"
   xml:space="preserve"
   id="svg3"
   sodipodi:docname="nowplaying.svg"
   inkscape:export-filename="C:\Users\samho\AppData\Roaming\Elgato\StreamDeck\Plugins\com.samhorne.mediamonkey5.sdPlugin\images\nowplaying\keys\nowplaying.png"
   inkscape:export-xdpi="13.5"
   inkscape:export-ydpi="13.5"
   inkscape:version="1.0 (4035a4fb49, 2020-05-01)"><metadata
   id="metadata9"><rdf:RDF><cc:Work
       rdf:about=""><dc:format>image/svg+xml</dc:format><dc:type
         rdf:resource="http://purl.org/dc/dcmitype/StillImage" /></cc:Work></rdf:RDF></metadata><defs
   id="defs7"><marker
     inkscape:stockid="Arrow2Send"
     orient="auto"
     refY="0.0"
     refX="0.0"
     id="Arrow2Send"
     style="overflow:visible;"
     inkscape:isstock="true"><path
       id="path947"
       style="fill-rule:evenodd;stroke-width:0.625;stroke-linejoin:round;stroke:#efefef;stroke-opacity:1;fill:#efefef;fill-opacity:1"
       d="M 8.7185878,4.0337352 L -2.2072895,0.016013256 L 8.7185884,-4.0017078 C 6.9730900,-1.6296469 6.9831476,1.6157441 8.7185878,4.0337352 z "
       transform="scale(0.3) rotate(180) translate(-2.3,0)" /></marker><marker
     inkscape:stockid="Arrow1Send"
     orient="auto"
     refY="0.0"
     refX="0.0"
     id="Arrow1Send"
     style="overflow:visible;"
     inkscape:isstock="true"><path
       id="path929"
       d="M 0.0,0.0 L 5.0,-5.0 L -12.5,0.0 L 5.0,5.0 L 0.0,0.0 z "
       style="fill-rule:evenodd;stroke:#efefef;stroke-width:1pt;stroke-opacity:1;fill:#efefef;fill-opacity:1"
       transform="scale(0.2) rotate(180) translate(6,0)" /></marker><marker
     inkscape:stockid="DotS"
     orient="auto"
     refY="0.0"
     refX="0.0"
     id="DotS"
     style="overflow:visible"
     inkscape:isstock="true"><path
       id="path981"
       d="M -2.5,-1.0 C -2.5,1.7600000 -4.7400000,4.0 -7.5,4.0 C -10.260000,4.0 -12.5,1.7600000 -12.5,-1.0 C -12.5,-3.7600000 -10.260000,-6.0 -7.5,-6.0 C -4.7400000,-6.0 -2.5,-3.7600000 -2.5,-1.0 z "
       style="fill-rule:evenodd;stroke:#efefef;stroke-width:1pt;stroke-opacity:1;fill:#efefef;fill-opacity:1"
       transform="scale(0.2) translate(7.4, 1)" /></marker></defs><sodipodi:namedview
   inkscape:snap-nodes="false"
   inkscape:snap-bbox-midpoints="false"
   inkscape:snap-bbox="true"
   inkscape:document-rotation="0"
   pagecolor="#ffffff"
   bordercolor="#666666"
   borderopacity="1"
   objecttolerance="10"
   gridtolerance="10"
   guidetolerance="10"
   inkscape:pageopacity="0"
   inkscape:pageshadow="2"
   inkscape:window-width="2560"
   inkscape:window-height="1387"
   id="namedview5"
   showgrid="false"
   inkscape:zoom="1.0019531"
   inkscape:cx="174.77313"
   inkscape:cy="122.83172"
   inkscape:window-x="-8"
   inkscape:window-y="-8"
   inkscape:window-maximized="1"
   inkscape:current-layer="last"
   inkscape:snap-object-midpoints="true"
   inkscape:snap-bbox-edge-midpoints="true"
   showguides="false"><inkscape:grid
     type="xygrid"
     id="grid861" /></sodipodi:namedview>
<path
   sodipodi:nodetypes="ccscscsccsssss"
   id="stop-icon"
   d="m 256,92.481 c 44.433,0 86.18,17.068 117.553,48.064 31.241,30.866 48.447,71.868 48.447,115.454 0,43.586 -17.206,84.588 -48.448,115.455 -31.372,30.994 -73.12,48.064 -117.552,48.064 -44.432,0 -86.179,-17.07 -117.552,-48.064 C 107.206,340.587 90,299.585 90,255.999 90,212.413 107.206,171.411 138.448,140.546 169.821,109.55 211.568,92.481 256,92.481 m 0,-40 c -113.771,0 -206,91.117 -206,203.518 0,112.398 92.229,203.52 206,203.52 113.772,0 206,-91.121 206,-203.52 0,-112.4 -92.228,-203.518 -206,-203.518 z"
   style="fill:#efefef;fill-opacity:1" />
<g
   style="fill:#efefef;fill-opacity:1"
   transform="matrix(5.0138306,0,0,5.0138306,175.77871,175.77871)"
   id="last"><g
     transform="matrix(0.1994483,0,0,0.1994483,-26.180213,-61.205068)"
     id="_x33_44._Playlist"><g
       id="g4"><path
         style="stroke-width:7.67926"
         sodipodi:nodetypes="ccscsssscccccsssccsc"
         d="m 281.18911,275.21362 -93.34144,18.66829 c -16.63328,3.32512 -30.11807,19.7741 -30.11807,36.73759 v 92.92676 c -2.4804,-0.49916 -5.04527,-0.77561 -7.67926,-0.77561 -21.21012,0 -38.39631,17.19387 -38.39631,38.39631 0,21.21013 17.18619,38.39632 38.39631,38.39632 21.20244,0 38.39631,-17.18619 38.39631,-38.39632 0,-1.95821 -0.29181,-3.83195 -0.57594,-5.70569 l 0.57594,-0.11519 V 348.17429 L 280.5978,330.6195 v 62.20971 c -2.4804,-0.49916 -5.04527,-0.77561 -7.67926,-0.77561 -21.21012,0 -38.39631,17.19387 -38.39631,38.39631 0,21.21013 17.18619,38.39632 38.39631,38.39632 20.63418,0 37.34425,-16.31844 38.23505,-36.74528 l 0.16126,-0.0307 V 299.91013 c 0,-16.97117 -13.49246,-28.02163 -30.12574,-24.69651 z"
         id="path2" /></g></g></g></svg>
