<?xml version="1.0" encoding="UTF-8" standalone="no"?>
<svg
   xmlns:dc="http://purl.org/dc/elements/1.1/"
   xmlns:cc="http://creativecommons.org/ns#"
   xmlns:rdf="http://www.w3.org/1999/02/22-rdf-syntax-ns#"
   xmlns:svg="http://www.w3.org/2000/svg"
   xmlns="http://www.w3.org/2000/svg"
   xmlns:sodipodi="http://sodipodi.sourceforge.net/DTD/sodipodi-0.dtd"
   xmlns:inkscape="http://www.inkscape.org/namespaces/inkscape"
   version="1.1"
   x="0px"
   y="0px"
   width="100%"
   height="100%"
   viewBox="0 0 512 512"
   enable-background="new 0 0 512 512"
   xml:space="preserve"
   id="svg3"
   sodipodi:docname="mute.svg"
   inkscape:export-filename="C:\Users\samho\AppData\Roaming\Elgato\StreamDeck\Plugins\com.samhorne.mediamonkey5.sdPlugin\images\volume\actions\mute.png"
   inkscape:export-xdpi="3.75"
   inkscape:export-ydpi="3.75"
   inkscape:version="1.0 (4035a4fb49, 2020-05-01)"><metadata
   id="metadata9"><rdf:RDF><cc:Work
       rdf:about=""><dc:format>image/svg+xml</dc:format><dc:type
         rdf:resource="http://purl.org/dc/dcmitype/StillImage" /><dc:title /></cc:Work></rdf:RDF></metadata><defs
   id="defs7" /><sodipodi:namedview
   inkscape:snap-nodes="false"
   inkscape:snap-bbox-midpoints="true"
   inkscape:snap-bbox="true"
   inkscape:document-rotation="0"
   pagecolor="#ffffff"
   bordercolor="#666666"
   borderopacity="1"
   objecttolerance="10"
   gridtolerance="10"
   guidetolerance="10"
   inkscape:pageopacity="0"
   inkscape:pageshadow="2"
   inkscape:window-width="2560"
   inkscape:window-height="1387"
   id="namedview5"
   showgrid="false"
   inkscape:zoom="0.70848783"
   inkscape:cx="206.07945"
   inkscape:cy="357.85618"
   inkscape:window-x="-8"
   inkscape:window-y="-8"
   inkscape:window-maximized="1"
   inkscape:current-layer="c74_volume" />
<path
   sodipodi:nodetypes="ccscscsccsssss"
   id="stop-icon"
   d="m 256,92.481 c 44.433,0 86.18,17.068 117.553,48.064 31.241,30.866 48.447,71.868 48.447,115.454 0,43.586 -17.206,84.588 -48.448,115.455 -31.372,30.994 -73.12,48.064 -117.552,48.064 -44.432,0 -86.179,-17.07 -117.552,-48.064 C 107.206,340.587 90,299.585 90,255.999 90,212.413 107.206,171.411 138.448,140.546 169.821,109.55 211.568,92.481 256,92.481 m 0,-40 c -113.771,0 -206,91.117 -206,203.518 0,112.398 92.229,203.52 206,203.52 113.772,0 206,-91.121 206,-203.52 0,-112.4 -92.228,-203.518 -206,-203.518 z"
   style="fill:#efefef;fill-opacity:1" />
<g
   id="c74_volume"
   transform="matrix(9.0431408,0,0,9.0431408,130.67564,144.92216)"
   style="fill:#efefef;fill-opacity:1"><path
     id="path2"
     d="M 4.637,7.15 H 0 v 10.33 h 4.637 l 8.766,6.502 c 0,0 1.611,1.346 1.611,-0.045 0,-1.395 0,-22.177 0,-23.446 0,-1.092 -1.418,-0.025 -1.418,-0.025 z"
     style="fill:#efefef;fill-opacity:1" /></g><g
   id="Capa_1"
   transform="matrix(9.7325529,0,0,9.7325529,121.12142,136.45404)" /></svg>
