<?xml version="1.0" encoding="UTF-8" standalone="no"?>
<svg
   xmlns:dc="http://purl.org/dc/elements/1.1/"
   xmlns:cc="http://creativecommons.org/ns#"
   xmlns:rdf="http://www.w3.org/1999/02/22-rdf-syntax-ns#"
   xmlns:svg="http://www.w3.org/2000/svg"
   xmlns="http://www.w3.org/2000/svg"
   xmlns:sodipodi="http://sodipodi.sourceforge.net/DTD/sodipodi-0.dtd"
   xmlns:inkscape="http://www.inkscape.org/namespaces/inkscape"
   inkscape:version="1.0 (4035a4fb49, 2020-05-01)"
   inkscape:export-ydpi="13.5"
   inkscape:export-xdpi="13.5"
   inkscape:export-filename="C:\Users\samho\AppData\Roaming\Elgato\StreamDeck\Plugins\com.samhorne.mediamonkey5.sdPlugin\images\volume\keys\volumeup.png"
   sodipodi:docname="volumeup.svg"
   id="svg3"
   xml:space="preserve"
   enable-background="new 0 0 512 512"
   viewBox="0 0 512 512"
   height="100%"
   width="100%"
   y="0px"
   x="0px"
   version="1.1"><metadata
   id="metadata9"><rdf:RDF><cc:Work
       rdf:about=""><dc:format>image/svg+xml</dc:format><dc:type
         rdf:resource="http://purl.org/dc/dcmitype/StillImage" /><dc:title /></cc:Work></rdf:RDF></metadata><defs
   id="defs7" /><sodipodi:namedview
   inkscape:current-layer="c74_volume"
   inkscape:window-maximized="1"
   inkscape:window-y="-8"
   inkscape:window-x="-8"
   inkscape:cy="357.85618"
   inkscape:cx="206.07945"
   inkscape:zoom="0.70848783"
   showgrid="false"
   id="namedview5"
   inkscape:window-height="1387"
   inkscape:window-width="2560"
   inkscape:pageshadow="2"
   inkscape:pageopacity="0"
   guidetolerance="10"
   gridtolerance="10"
   objecttolerance="10"
   borderopacity="1"
   bordercolor="#666666"
   pagecolor="#ffffff"
   inkscape:document-rotation="0"
   inkscape:snap-bbox="true"
   inkscape:snap-bbox-midpoints="true"
   inkscape:snap-nodes="false" />
<path
   style="fill:#efefef;fill-opacity:1"
   d="m 256,92.481 c 44.433,0 86.18,17.068 117.553,48.064 31.241,30.866 48.447,71.868 48.447,115.454 0,43.586 -17.206,84.588 -48.448,115.455 -31.372,30.994 -73.12,48.064 -117.552,48.064 -44.432,0 -86.179,-17.07 -117.552,-48.064 C 107.206,340.587 90,299.585 90,255.999 90,212.413 107.206,171.411 138.448,140.546 169.821,109.55 211.568,92.481 256,92.481 m 0,-40 c -113.771,0 -206,91.117 -206,203.518 0,112.398 92.229,203.52 206,203.52 113.772,0 206,-91.121 206,-203.52 0,-112.4 -92.228,-203.518 -206,-203.518 z"
   id="stop-icon"
   sodipodi:nodetypes="ccscscsccsssss" />
<g
   style="fill:#efefef;fill-opacity:1"
   transform="matrix(9.0431408,0,0,9.0431408,130.67564,144.92216)"
   id="c74_volume"><path
     style="fill:#efefef;fill-opacity:1"
     d="M 4.637,7.15 H 0 v 10.33 h 4.637 l 8.766,6.502 c 0,0 1.611,1.346 1.611,-0.045 0,-1.395 0,-22.177 0,-23.446 0,-1.092 -1.418,-0.025 -1.418,-0.025 z"
     id="path2" /><text
     id="text837"
     y="21.783691"
     x="15.626195"
     style="font-style:normal;font-variant:normal;font-weight:bold;font-stretch:normal;font-size:29.0406px;line-height:1.25;font-family:Bahnschrift;-inkscape-font-specification:'Bahnschrift, Bold';font-variant-ligatures:normal;font-variant-caps:normal;font-variant-numeric:normal;font-variant-east-asian:normal;fill:#efefef;fill-opacity:1;stroke:none;stroke-width:2.50583;stroke-miterlimit:4;stroke-dasharray:none"
     xml:space="preserve"><tspan
       style="font-style:normal;font-variant:normal;font-weight:bold;font-stretch:normal;font-size:29.0406px;font-family:Bahnschrift;-inkscape-font-specification:'Bahnschrift, Bold';font-variant-ligatures:normal;font-variant-caps:normal;font-variant-numeric:normal;font-variant-east-asian:normal;fill:#efefef;fill-opacity:1;stroke-width:2.50583;stroke-miterlimit:4;stroke-dasharray:none"
       y="21.783691"
       x="15.626195"
       id="tspan835"
       sodipodi:role="line">+</tspan></text></g><g
   transform="matrix(9.7325529,0,0,9.7325529,121.12142,136.45404)"
   id="Capa_1" /></svg>
